<svg width="296" height="48" viewBox="0 0 296 48" fill="none" xmlns="http://www.w3.org/2000/svg">
<g clip-path="url(#clip0_459_65351)">
<g clip-path="url(#clip1_459_65351)">
<path d="M34.3175 36.5672L18.4402 4.81262C18.1276 4.12502 17.8151 4 17.44 4C17.1275 4 16.7524 4.12502 16.3774 4.75011C14.127 8.31312 13.1269 12.4387 13.1269 16.7518C13.1269 22.7527 16.1898 28.3785 20.6905 37.4423C21.1906 38.4425 21.5656 38.63 22.4407 38.63H33.4423C34.2549 38.63 34.6925 38.3175 34.6925 37.6924C34.6925 37.3798 34.63 37.1923 34.3175 36.5672ZM11.2516 21.565C10.0014 19.6898 9.62639 19.5647 9.31384 19.5647C9.0013 19.5647 8.81377 19.6898 8.25119 20.8149L0.312545 36.6922C0.062509 37.1923 0 37.3798 0 37.6299C0 38.1299 0.437563 38.63 1.3752 38.63H12.5643C13.3144 38.63 13.877 38.0049 14.1895 36.8172C14.5646 35.317 14.6896 34.0043 14.6896 32.4416C14.6896 28.066 12.7518 23.8154 11.2516 21.565Z" fill="#1868DB"/>
</g>
<path d="M161.171 16.2406C161.171 20.6995 163.188 24.203 171.362 25.7954C176.14 26.8571 177.201 27.6002 177.201 29.1927C177.201 30.7852 176.14 31.7406 172.743 31.7406C168.814 31.7406 164.143 30.3605 161.064 28.5557V35.7749C163.506 36.9427 166.691 38.3228 172.743 38.3228C181.236 38.3228 184.527 34.5009 184.527 28.9804M184.527 29.0865C184.527 23.7783 181.767 21.3365 173.804 19.6379C169.451 18.6824 168.39 17.7269 168.39 16.3468C168.39 14.6482 169.982 13.905 172.849 13.905C176.352 13.905 179.749 14.9667 183.04 16.453V9.55228C180.705 8.38447 177.201 7.53516 173.061 7.53516C165.205 7.53516 161.171 10.9324 161.171 16.453" fill="#1868DB"/>
<path d="M269.884 7.74805V38.0049H276.36V14.9672L279.014 21.0186L288.144 38.0049H296.213V7.74805H289.843V27.2823L287.401 21.5494L280.076 7.74805H269.884Z" fill="#1868DB"/>
<path d="M228.904 7.74805H221.897V38.0049H228.904V7.74805Z" fill="#1868DB"/>
<path d="M213.829 28.9811C213.829 23.6728 211.068 21.2311 203.106 19.5324C198.753 18.5769 197.692 17.6215 197.692 16.2413C197.692 14.5427 199.284 13.7996 202.15 13.7996C205.654 13.7996 209.051 14.8612 212.342 16.3475V9.44681C210.007 8.279 206.503 7.42969 202.363 7.42969C194.507 7.42969 190.472 10.8269 190.472 16.3475C190.472 20.8064 192.489 24.3098 200.664 25.9023C205.442 26.9639 206.503 27.7071 206.503 29.2995C206.503 30.892 205.442 31.8475 202.044 31.8475C198.116 31.8475 193.445 30.4674 190.366 28.6626V35.8817C192.808 37.0495 195.993 38.4297 202.044 38.4297C210.431 38.4297 213.829 34.6078 213.829 28.9811Z" fill="#1868DB"/>
<path d="M106.603 7.74805V38.0049H121.041L123.27 31.4227H113.609V7.74805H106.603Z" fill="#1868DB"/>
<path d="M78.0449 7.74805V14.2241H85.7949V38.0049H92.9079V14.2241H101.295V7.74805H78.0449Z" fill="#1868DB"/>
<path d="M67.7466 7.74805H58.5103L48 38.0049H56.0685L57.5548 32.909C59.3596 33.4398 61.2705 33.7583 63.1815 33.7583C65.0925 33.7583 67.0034 33.4398 68.8082 32.909L70.2945 38.0049H78.363C78.2568 38.0049 67.7466 7.74805 67.7466 7.74805ZM63.0753 27.3885C61.6952 27.3885 60.4212 27.1761 59.2534 26.8576L63.0753 13.6933L66.8973 26.8576C65.7294 27.1761 64.4555 27.3885 63.0753 27.3885Z" fill="#1868DB"/>
<path d="M145.989 7.74805H136.753L126.137 38.0049H134.205L135.692 32.909C137.496 33.4398 139.407 33.7583 141.318 33.7583C143.229 33.7583 145.14 33.4398 146.945 32.909L148.431 38.0049H156.5L145.989 7.74805ZM141.318 27.3885C139.938 27.3885 138.664 27.1761 137.496 26.8576L141.318 13.6933L145.14 26.8576C143.972 27.1761 142.698 27.3885 141.318 27.3885Z" fill="#1868DB"/>
<path d="M254.278 7.74805H245.042L234.531 38.0049H242.6L244.086 32.909C245.891 33.4398 247.802 33.7583 249.713 33.7583C251.624 33.7583 253.535 33.4398 255.339 32.909L256.826 38.0049H264.894L254.278 7.74805ZM249.713 27.3885C248.333 27.3885 247.059 27.1761 245.891 26.8576L249.713 13.6933L253.535 26.8576C252.367 27.1761 250.987 27.3885 249.713 27.3885Z" fill="#1868DB"/>
</g>
<defs>
<clipPath id="clip0_459_65351">
<rect width="296" height="48" fill="white"/>
</clipPath>
<clipPath id="clip1_459_65351">
<rect width="34.6925" height="34.63" fill="white" transform="translate(0 4)"/>
</clipPath>
</defs>
</svg>
